<?xml version="1.0" encoding="UTF-8"?>
<svg version="1.1" xmlns="http://www.w3.org/2000/svg" width="148" height="148">
<path d="M0 0 C4.21405613 2.1260103 8.10141199 4.83157298 11.25 8.375 C11.25 9.035 11.25 9.695 11.25 10.375 C11.91 10.375 12.57 10.375 13.25 10.375 C13.49105469 9.77945313 13.73210937 9.18390625 13.98046875 8.5703125 C15.50278876 5.93786991 17.01473991 4.88570479 19.5625 3.25 C20.32175781 2.75242187 21.08101562 2.25484375 21.86328125 1.7421875 C27.99184543 -1.76844664 33.26497519 -2.50515058 40.25 -1.625 C47.27580053 0.44851706 51.33089616 3.88066576 55.09375 10.09375 C59.14960112 18.09583463 59.76726119 27.34905924 57.5625 36.10546875 C56.61382654 38.33880418 55.53838654 40.3200034 54.25 42.375 C53.82589844 43.096875 53.40179688 43.81875 52.96484375 44.5625 C44.17377563 58.66738924 26.73279875 77.43813405 11.25 84.375 C10.54875 83.73433594 9.8475 83.09367187 9.125 82.43359375 C2.76669128 76.63193916 2.76669128 76.63193916 -3.6875 70.9375 C-7.23492972 67.84183064 -10.75346823 64.71546263 -14.25 61.5625 C-14.79132568 61.08176025 -15.33265137 60.60102051 -15.89038086 60.10571289 C-17.2155936 58.90343823 -18.48792137 57.64338902 -19.75 56.375 C-19.75 55.715 -19.75 55.055 -19.75 54.375 C-20.41 54.375 -21.07 54.375 -21.75 54.375 C-31.0287319 43.2222385 -34.91090566 32.84656374 -33.75 18.375 C-31.65399418 10.75118608 -27.1822912 4.92466939 -20.75 0.375 C-14.06085845 -2.75108123 -6.83823732 -2.81023451 0 0 Z " fill="#F00404" transform="translate(61.75,32.625)"/>
<path d="M0 0 C2.80020263 1.75643973 4.79561569 3.72169786 6.94921875 6.22265625 C6.28921875 6.55265625 5.62921875 6.88265625 4.94921875 7.22265625 C4.45421875 6.23265625 4.45421875 6.23265625 3.94921875 5.22265625 C1.62235548 4.10770094 -0.64583493 3.13903914 -3.05078125 2.22265625 C-3.80617188 1.92746094 -4.5615625 1.63226563 -5.33984375 1.328125 C-11.10553269 -0.78587065 -11.10553269 -0.78587065 -17.05078125 0.22265625 C-18.06140625 0.51140625 -19.07203125 0.80015625 -20.11328125 1.09765625 C-22.89213917 2.16189971 -24.79404746 3.31311228 -27.05078125 5.22265625 C-27.71078125 4.89265625 -28.37078125 4.56265625 -29.05078125 4.22265625 C-20.26344855 -3.54289358 -10.84188688 -5.43067583 0 0 Z " fill="#E45C5C" transform="translate(64.05078125,33.77734375)"/>
<path d="M0 0 C0.33 0.99 0.66 1.98 1 3 C0.67 3.66 0.34 4.32 0 5 C-0.66 5 -1.32 5 -2 5 C-2.16905897 8.37488458 -2.33481769 11.74992363 -2.5 15.125 C-2.54769531 16.07632813 -2.59539063 17.02765625 -2.64453125 18.0078125 C-2.87149923 22.67686809 -3.06298132 27.32363704 -3 32 C-6.59130246 28.40869754 -6.20985583 24.22321308 -6.3125 19.3125 C-6.27166609 11.47238999 -4.27547381 6.41321071 0 0 Z " fill="#E04548" transform="translate(34,39)"/>
<path d="M0 0 C2.31 0 4.62 0 7 0 C7.33 1.32 7.66 2.64 8 4 C9.65 4.33 11.3 4.66 13 5 C12.01 5.33 11.02 5.66 10 6 C10.33 7.98 10.66 9.96 11 12 C9.84775972 11.07038578 8.70340824 10.1309875 7.5625 9.1875 C6.92441406 8.66542969 6.28632812 8.14335938 5.62890625 7.60546875 C4 6 4 6 3 3 C2.34 3 1.68 3 1 3 C0.67 2.01 0.34 1.02 0 0 Z " fill="#E52D2C" transform="translate(39,84)"/>
<path d="M0 0 C0.33 0 0.66 0 1 0 C1.76595745 17.34042553 1.76595745 17.34042553 -3 25 C-3.33 25 -3.66 25 -4 25 C-4.33838015 20.48826471 -3.44213784 17.44935609 -1.734375 13.30078125 C-0.35979616 8.994255 -0.23942385 4.4912611 0 0 Z " fill="#E75254" transform="translate(119,50)"/>
<path d="M0 0 C0 0.66 0 1.32 0 2 C0.99 2.33 1.98 2.66 3 3 C-0.05263664 3.98120464 -1.94736336 3.98120464 -5 3 C-5.33 4.32 -5.66 5.64 -6 7 C-6.68707555 4.50935112 -7 2.62113708 -7 0 C-3.98968256 -0.93423645 -3.13349732 -1.04449911 0 0 Z " fill="#E51E1E" transform="translate(73,41)"/>
<path d="M0 0 C1.46373047 0.02707031 1.46373047 0.02707031 2.95703125 0.0546875 C3.69308594 0.07789062 4.42914063 0.10109375 5.1875 0.125 C5.1875 0.455 5.1875 0.785 5.1875 1.125 C4.61902344 1.16238281 4.05054687 1.19976562 3.46484375 1.23828125 C-3.64510646 1.84363594 -9.22063132 3.42783031 -14.8125 8.125 C-15.4725 7.795 -16.1325 7.465 -16.8125 7.125 C-11.37501103 2.31977719 -7.51031958 -0.18097156 0 0 Z " fill="#E46767" transform="translate(51.8125,30.875)"/>
<path d="M0 0 C3.82524236 1.450954 5.19090966 3.38181932 7 7 C7 7.66 7 8.32 7 9 C3.6014593 7.8671531 2.26586505 6.73466472 0 4 C0 2.68 0 1.36 0 0 Z " fill="#E15959" transform="translate(110,36)"/>
<path d="M0 0 C0.66 0 1.32 0 2 0 C1.52797514 4.24822374 -0.96655518 6.19989709 -4 9 C-4 7.35 -4 5.7 -4 4 C-3.01 4 -2.02 4 -1 4 C-0.67 2.68 -0.34 1.36 0 0 Z " fill="#DF4443" transform="translate(112,76)"/>
<path d="M0 0 C0.33 0.99 0.66 1.98 1 3 C2.65 3.33 4.3 3.66 6 4 C5.67 5.32 5.34 6.64 5 8 C4.01 8 3.02 8 2 8 C0.25 5.6875 0.25 5.6875 -1 3 C-0.67 2.01 -0.34 1.02 0 0 Z " fill="#E43D42" transform="translate(32,71)"/>
<path d="M0 0 C1.2065625 0.0309375 1.2065625 0.0309375 2.4375 0.0625 C0.79580472 2.08304804 -0.87161778 4.08293058 -2.5625 6.0625 C-2.8925 6.0625 -3.2225 6.0625 -3.5625 6.0625 C-3.605221 4.39638095 -3.60313832 2.72867115 -3.5625 1.0625 C-2.5625 0.0625 -2.5625 0.0625 0 0 Z " fill="#E55754" transform="translate(101.5625,89.9375)"/>
<path d="M0 0 C3.68754757 0.49831724 5.60490662 1.10067643 8 4 C4.61976483 4 2.16531063 3.12544378 -1 2 C-0.67 1.34 -0.34 0.68 0 0 Z " fill="#E04446" transform="translate(102,32)"/>
<path d="M0 0 C1.65 0 3.3 0 5 0 C5.33 1.98 5.66 3.96 6 6 C3.97945196 4.35830472 1.97956942 2.69088222 0 1 C0 0.67 0 0.34 0 0 Z " fill="#E56363" transform="translate(44,90)"/>
<path d="M0 0 C2.97 0.495 2.97 0.495 6 1 C6 2.65 6 4.3 6 6 C3.97945196 4.35830472 1.97956942 2.69088222 0 1 C0 0.67 0 0.34 0 0 Z " fill="#E34A49" transform="translate(53,98)"/>
<path d="M0 0 C2.64 0 5.28 0 8 0 C8.66 1.32 9.32 2.64 10 4 C6.7 3.01 3.4 2.02 0 1 C0 0.67 0 0.34 0 0 Z " fill="#D62F33" transform="translate(52,32)"/>
</svg>
